<?xml version="1.0" encoding="utf-8"?>
<!-- Generator: Adobe Illustrator 23.0.1, SVG Export Plug-In . SVG Version: 6.00 Build 0)  -->
<svg version="1.1" id="Layer_1" xmlns="http://www.w3.org/2000/svg" xmlns:xlink="http://www.w3.org/1999/xlink" x="0px" y="0px"
	 viewBox="0 0 1000 1000" style="enable-background:new 0 0 1000 1000;" xml:space="preserve">
<style type="text/css">
	.st0{fill:#1B5EAC;}
	.st1{fill:#FFFFFF;}
</style>
<g>
	<g>
		<rect x="506.8" y="253.1" class="st0" width="239.2" height="239.2"/>
		<path class="st1" d="M567.3,292.4v94c0,49.9,24.8,68.4,57.5,68.4c34.6,0,60.5-19.9,60.5-68.9v-93.5h-21v94.8
			c0,35.1-15.5,50.7-39,50.7c-21.3,0-37.3-15.3-37.3-50.7v-94.8H567.3L567.3,292.4z"/>
		<rect x="760.8" y="253.1" class="st0" width="239.2" height="239.2"/>
		<path class="st1" d="M839.8,452.6v-68.4c0-26.4-0.3-45.8-1.4-65.9l0.8-0.3c7.9,17.2,18.5,35.4,29.7,53.4l50.7,81.2h21V292.9h-19.3
			v67c0,24.8,0.5,44.1,2.5,65.4l-1.1,0.3c-7.4-16.6-16.9-33.2-28.3-52l-51-80.9h-22.9v159.7h19.3V452.6z"/>
		<rect x="760.8" y="507.1" class="st0" width="239.2" height="239.2"/>
		<path class="st1" d="M914.2,594c0-21.3-15-31.6-37.6-31.6c-9,0-15.8,0.8-19.3,1.6v62.1c4.4,1.1,10.4,1.6,17.2,1.6
			C899.2,628.1,914.2,615.5,914.2,594 M934.9,591.8c0,14.4-4.4,25.9-12.5,34.1c-10.9,11.4-28.6,17.4-48.8,17.4
			c-6.3,0-12-0.3-16.6-1.4v64.3h-20.7V548.5c10.1-1.9,22.9-3.3,39.5-3.3c20.4,0,35.4,4.6,44.7,13.4
			C929.7,565.9,934.9,577.7,934.9,591.8z"/>
		<rect x="506.5" y="507.4" class="st0" width="239.2" height="239.2"/>
		<path class="st1" d="M675.7,622.9c0.3-38.1-21.3-61.6-64.9-61.6c-10.6,0-18.8,0.8-24.3,2.2v126.4c5.2,0.8,12.8,0.8,21,0.8
			C651.8,691,675.7,666.2,675.7,622.9 M697.5,622.3c0,26.2-8.2,47.4-22.9,62.1c-15.3,15-39.8,22.9-70.8,22.9c-15,0-27-0.5-37.6-1.9
			V548.2c12.8-1.9,27.8-3.3,44.1-3.3c29.7,0,50.7,6.5,64.9,19.6C689.1,577.7,697.5,596.5,697.5,622.3z"/>
	</g>
	<g>
		<rect y="253.1" class="st0" width="493.7" height="493.7"/>
		<path class="st1" d="M372.5,604.9c-11.2,3-23.4,4.1-34.3,7.9c18.5-16.1,17.7-40.6,30-59.7c4.1-5.4,7.4-10.9,11.7-16.1
			c-7.6,15.3-4.4,34.9-13.1,49.6c-3.3,5.7-8.2,11.4-13.4,16.1c1.6,0,3.3-1.6,4.6-2.5c14.2-14.2,32.7-18,48-29.4
			c6-4.9,11.7-11.2,14.4-18.3C417.7,576,394.3,597.8,372.5,604.9"/>
		<path class="st1" d="M423.4,510.4c-6.8,9.8-15.3,19.1-21.5,28.9c0.8-7.9,1.6-17.7-1.4-25.1c-5.4-16.1-10.1-32.4-11.4-50.1l0.3-6.8
			c4.1,18,21.8,30.5,20.7,50.7c0.3,4.9-1.1,9-1.9,13.4l0.3,0.3l0.8-0.8c2.7-9.8,3.8-20.4,7.9-29.7c5.7-13.4,13.1-27,10.1-43.1
			C435.7,467,433,492.4,423.4,510.4"/>
		<path class="st1" d="M412.5,407.9c11.7,15.8,14.2,40.9,5.7,59.1c-3.3,7.6-5.4,15.8-6.5,24.3c-0.5-1.4-0.8-3.5-1.4-5.2
			c-4.6-17.7-21.5-30.2-28.3-47.1c-2.2-5.4-4.1-11.2-5.2-17.2c7.4,13.6,25.6,20.7,30.5,35.7c1.9,3.8,1.9,8.4,3.3,12.5
			c0.3,0,0.5-0.3,0.5-0.5c-2.2-15.5-1.6-31.6,0.5-46.9c0-8.2-0.8-16.3-5.4-22.6C409,401.9,410.4,405.2,412.5,407.9"/>
		<path class="st1" d="M404.1,404.6c3,13.9-1.4,27.2,1.4,41.1l0,0c-7.6-14.7-23.4-21.8-34.6-33.5c-6.3-7.1-9.3-15.5-10.6-24.8
			c6.3,15.3,23.2,18.5,33,31.3c3.3,3,4.4,7.1,6.5,10.4l0.3-0.3c-5.7-12-7.6-25.3-11.4-38.1c-1.9-5.4-6-10.9-11.2-14.4
			C390.5,379.3,401.6,392.6,404.1,404.6"/>
		<path class="st1" d="M370,373c9.5,8.7,13.9,19.9,16.9,31.3l1.6,3.8c-13.9-10.1-26.7-23.7-35.7-37.9L342,359.1
			C351.5,363.2,361.9,365.7,370,373"/>
		<path class="st1" d="M148.8,361c-9.8,8.4-16.3,19.3-23.4,29.2c-6.5,7.9-14.7,13.4-22.1,20.2c3.8-8.2,4.1-18,9.5-25.3
			C121,371.1,135.7,366.2,148.8,361"/>
		<path class="st1" d="M95.9,390.5c4.6-5.7,10.6-9.8,17.4-11.7c-13.1,9-12.3,25.1-16.3,38.4c-1.4,4.9-3.5,9.5-4.6,14.4l0.3,0.3
			c2.2-5.7,6-11.2,10.6-15.8c9.3-8.4,22.9-13.9,27.5-26.4c-0.3,17.4-15,31.3-28.9,41.1c-5.7,5.2-11.4,10.9-14.4,17.4
			c-0.3-4.4,0.5-9,0.3-13.6C86.4,419.3,85,401.9,95.9,390.5"/>
		<path class="st1" d="M69.5,443.1c-0.3-15.5,6-28.3,15.3-39.8c0.3,0,0.5-0.3,0.8-0.3c-10.1,15.3-1.6,34.3-2.2,51.8L82,472.5
			c0.3,0,0.3,0.5,0.5,0.5c0.5-1.9,0.8-4.1,1.1-6c2.5-14.2,14.7-24.5,25.6-34.3c2.2-2.5,4.4-5.2,5.4-8.2c-0.8,7.1-3,14.2-6,21
			c-8.4,16.3-24,30-27,48.8C80.7,475.7,68.4,462.1,69.5,443.1"/>
		<path class="st1" d="M62.1,465.1c1.1-4.9,1.9-9.8,4.1-14.4c-4.1,20.4,9.8,35.4,14.4,53.1c1.9,6.5,2.5,13.9,5.2,20.2
			c0.3,0,0.5,0,0.5-0.3c-6.8-19.1,3-36.5,12.8-51.2c2.5-4.1,3.8-8.4,4.9-13.1c1.1,8.4-1.1,18.5-2.5,27.2c-2.5,11.4-6,22.1-9,33
			c-1.9,6.8-1.6,14.7-0.5,21.8l-1.1-0.8c-7.1-13.4-21.5-23.4-25.6-38.1C61.9,491,59.7,477.7,62.1,465.1"/>
		<path class="st1" d="M61.3,505.2c1.6,21.8,25.1,33.2,36,51.2c2.5,3.8,4.9,7.6,8.2,10.9c-0.5-2.2-2.7-4.4-3.5-6.5
			c-3.8-7.6-5.2-16.6-4.4-25.6c1.1-11.2,5.7-21.5,3.8-33.2c9.5,20.7,6.5,46.3,12,68.7c1.4,4.9,4.1,9.3,6,13.9
			c-19.6-13.4-46.3-26.2-55-50.4C61,525.3,60.5,515,61.3,505.2"/>
		<path class="st1" d="M73,555.3c10.9,24.8,38.4,26.7,56.7,42c3.3,3,6.8,5.4,10.6,7.4l0.3-0.3c-4.1-3.8-9-8.2-12-13.1
			c-10.6-15-7.1-36-15-52c7.4,8.7,13.9,17.7,18.3,27.8c6.5,16.1,9,34.6,24.3,46.6c-16.3-5.4-35.7-3.8-50.1-13.9
			C90.2,589.9,76,573.3,73,555.3"/>
		<path class="st1" d="M101.1,601.4c17.4,19.9,46,13.4,69.5,18.5c3.3,0.5,6.3,1.9,9.8,1.4c-2.7-1.9-6.5-1.6-9.5-3.3
			c-18.3-6.5-21-26.2-31.1-39.5c12.8,8.4,23.4,19.9,35.1,30.8c8.4,7.4,18.5,10.9,29.2,13.1c-2.5,0.8-6,0.5-8.7,1.4
			c-19.1,4.6-40.6,12.5-60.8,5.4C121.5,624.8,107.9,614.4,101.1,601.4"/>
		<path class="st1" d="M339,648c-19.6,7.4-40.3-0.3-55.9-12c-6.3-4.1-11.7-9.8-19.9-9.3c-3,0-5.7,0-8.2,0.8
			c15,7.1,28.9,16.6,41.7,28.9c-2.2,2.5-4.9,4.6-7.6,6.8c-12.3-13.4-25.9-25.9-41.1-33.2c-3,0.3-5.7,2.2-8.4,3.5
			c-12.3,7.9-24.5,18-33.8,30.2l-7.9-6.5c12.5-12.8,26.7-22.6,42-29.7c-15-4.6-24.8,7.9-36.2,14.2c-13.4,9.3-32.4,13.6-48.5,7.4
			c-8.7-3.3-16.9-8.2-23.2-15.8c12.5,8.7,31.3,9.5,45.8,3.8c19.3-8.4,39.2-19.1,62.4-13.9c3.5,0,7.1,3.8,10.6,0.5
			c17.2-4.4,36.8-1.4,51.8,6.5l15.3,6c14.2,5.2,32.7,3.8,44.7-4.9C356.4,639,348,644.7,339,648"/>
		<path class="st1" d="M360.2,627.5c-22.1,8.4-44.4-1.9-65.7-5.4l-4.1-0.5l0,0c10.1-2.2,19.9-5.4,28.1-12.5
			c12-11.4,22.6-23.2,35.7-32.2c-9.8,12.5-10.9,30.5-27,38.7c-4.1,2.7-9,3-13.4,5.2c6,0,11.4-1.9,17.2-2.5
			c21.8-3.5,46.6,0,61.9-18.5C387.2,612,373,622.9,360.2,627.5"/>
		<path class="st1" d="M400.5,565.1c-8.7,5.7-17.7,11.2-26.2,17.4v-0.8c12.8-21.5,6.5-51,14.4-74.4l3-7.9c-1.6,14.7,4.6,27.2,4.4,42
			c-0.5,9-3.3,16.9-7.9,24h0.8c6.3-8.2,11.2-17.2,18.5-25.1c11.4-11.2,23.2-22.3,24.5-37.6C436,528.1,421.8,550.7,400.5,565.1"/>
		<path class="st1" d="M371.9,485.3c-1.4,30.8-12.8,57.5-33,80.4l-0.5,1.1c-4.1-4.6-9.5-10.4-14.7-14.4c3-1.9,5.4-5.7,7.6-8.4
			c12.5-17.2,19.9-36.5,21-58.3l-0.5-1.9l1.1,0.8h18.8l1.1-0.5L371.9,485.3z M251.2,605.7l-1.4,0.8c0.5-6.8,0.5-13.9,0-20.7
			c3.3,1.1,6.8,0,10.4,0l10.1-1.9c4.9,1.1,8.4,9,14.2,4.1c1.9-2.2,5.2-2.2,6.5-5.2c3.3-1.1,4.1-4.4,6.3-6.5
			c2.2-6.3,9.3-7.1,13.4-11.4c3-2.7,7.1-5.2,9-8.7l0.3,1.6l13.9,13.4C310.4,592.4,282.8,604.4,251.2,605.7z M251,563.8
			c2.5,1.1,6.5-1.1,7.9,1.6c-0.8,1.6-1.9,3-1.4,4.6c1.1,2.5,2.5,5.7,5.4,6c0.8,1.1,1.9,1.4,3,1.6c-5.2,0.8-10.9,0.5-15.8,2.2
			c0.5-5.4,0-10.9,0-16.3l-1.1-1.4C249.9,562.4,250.4,563.2,251,563.8z M246,530.2c-1.4,0.3-2.7,0-3.8-0.5c-0.5,0-0.3-0.8-0.5-1.1
			c1.9,0,2.7-2.2,4.9-1.9c1.1-1.1,1.4-2.7,3-3.5c-0.5-1.6,1.6-0.5,1.9-1.6c0.5-0.5,1.4-1.1,2.2-0.5c1.4,1.9,4.1,1.1,5.4,3.3
			c0.5,0.3,0.8-0.5,0.8-0.8v-0.8c2.2-0.3,3.3,2.7,5.4,0.8c0.5-0.5,0.3-1.4,0-1.9c-0.3,0-0.5-0.3-0.5-0.5c1.6-0.8,2.5,2.2,4.4,1.4
			c1.6-1.4,2.5-2.7,4.6-2.7l0.5,0.5c0.3,3.8-3,6.3-6,8.2c-1.9,0.8-5.4,0.5-5.2,3.5c-2.2,1.9-4.1-1.1-6.8-0.3c-1.4-0.5,0-2.5-1.9-2.7
			C251.5,529.7,248.2,527.2,246,530.2z M230.2,604.9c-26.4-3.5-49.6-15-70-32.7l13.6-13.6l0.3-0.8c18.8,18,41.4,27.2,67,28.9
			l1.9-0.5l-0.5,1.1v17.7l1.1,1.6C239.2,605.2,234.3,605.7,230.2,604.9z M137.6,542.5c-9.5-17.7-15-36.8-16.1-57.8h18.3l1.9-0.5
			c-0.3,1.1-0.3,2.2-0.3,3.8v-0.3c-0.5,0.3,0.3,0.5,0.3,1.1c0.3,7.1,1.6,13.6,3.3,19.9l0.8,1.4c-1.4-1.4-1.9-2.7-3-4.1
			c-1.6,0.3-3.3,0.5-4.4,1.6c0.8,1.9-1.1,1.4-1.9,1.9c-0.3-0.5-0.8-1.1-1.4-1.4c-1.4,0-2.7,0.3-3.5,1.6c0.3,1.1-0.8,1.4-1.4,2.2
			c-0.3,3-1.4,6.8,0.8,9.3c0,2.2,1.1,4.1,2.7,5.4c0.5,0,1.1-0.3,1.4-0.5c1.9,1.4,2.7,4.6,5.4,3.8c0.8-0.3,0.5-1.1,0.8-1.9
			c1.4,1.4,1.9,4.1,4.6,3.8c0.5,0.5,1.1,1.9,2.2,1.9c2.7-0.8,1.9,3.3,3.8,4.4c1.6,1.1,2.5,3.3,4.6,2.2l0.8-1.1
			c0.8,0.5,0,1.9,0.8,2.5c1.1,2.2,3.3,3.5,5.4,4.1c1.9,2.2,3.8,4.6,6,6.3l-1.6,0.5L155,566.2C149,559.1,142.2,551.2,137.6,542.5z
			 M122.3,465.7c3.3-27.2,15-51,33.8-71.9l0.5,1.9c4.4,4.4,9,9,13.4,13.1c-3.8,2.5-5.7,6.8-8.7,10.1c-11.7,16.6-18.5,35.4-19.6,56.4
			l0.5,2.5c-6.5-0.5-13.6-0.5-20.4,0C122.1,473.6,121.5,469.5,122.3,465.7z M171.4,380.4c21-15,44.4-24,70.8-25.1l-0.8,1.6l0.3,15.8
			l0.5,1.6c-25.6,1.1-48,10.9-67.3,28.3l-0.3,0.8c-4.4-4.6-9.3-10.1-14.4-13.9h-0.5C163.8,387.2,167.3,383.1,171.4,380.4z
			 M242.5,427c-3.5-0.8-6.5,0.8-9.8,1.1c-7.4,1.9-13.9,6-20.2,10.4c-0.3,0.5-0.5,1.1-1.1,1.4c-4.6-4.1-9-9.5-13.9-13.1
			c12.8-10.4,27.2-17.4,43.9-18.5l1.1-0.5C241.7,413.9,241.7,420.7,242.5,427z M237.3,448.2c-0.3-0.8,0.8-1.9-0.3-2.5
			c-3,1.4-1.9,4.6-3.8,6.8c-0.3,1.6-2.5,0.8-3.5,1.9c-0.8-1.4-2.5-1.1-3.5-0.5c-1.6,0-1.9-3.3-3.5-1.6c-0.5,0.5-0.3,1.6-1.4,1.4
			c-0.3-0.5-0.8-0.5-1.1-0.8c0-1.1,1.6-0.8,1.1-1.9c-1.1-2.2-3.8-1.9-5.4-3.3h-1.6c7.6-8.2,17.4-11.7,28.1-13.4
			c0,4.6-0.5,10.1,1.1,14.4C241.7,446.6,239.2,449,237.3,448.2z M219.1,501.6c1.1-1.1,2.2-2.7,2.7-4.4l2.2,1.1
			C221.8,498.6,220.7,500.8,219.1,501.6L219.1,501.6z M240.1,521.5c-0.8,1.6-0.3,3.8-0.5,5.4c-8.7-1.6-16.6-5.2-23.7-10.9
			c4.1-4.4,9.3-8.4,12.3-13.1c0.3,2.2,3,3,4.6,4.1c3.5,1.6,7.6,4.1,11.7,2.5c-0.3,0.3-0.5,0.5-0.8,0.8c1.1,1.1-0.8,2.2,0.5,3.3
			c0.3,0.8-0.8,0.8-0.8,1.4c0.5,1.1-0.3,3.3,1.6,3.8c0.5,0.5,0,1.6-0.8,1.6C242.5,520.2,240.9,520.2,240.1,521.5z M199.5,450.7
			c-1.9,1.1-3.3,3-4.4,4.6c-1.6,1.1-3.5,0.8-4.9,2.7c0,0.8,0.8,1.6,0,2.2c-1.6,1.4-4.6-0.3-5.4,2.5c-0.3,2.5-3.3,3.8-3,6.5
			c-1.6,1.1-1.4,3-1.1,4.6c0.8,1.1-0.3,3,1.1,3.8c-2.5-0.3-6-0.8-8.2,0.3c1.4-3,0.8-6.5,1.6-9.8c2.5-13.6,8.7-25.6,17.7-36.5
			c4.6,4.4,9.5,9.8,14.4,13.6C203.5,445.2,203.5,450.7,199.5,450.7z M190.5,528.3l-0.5-4.1c-3.8-3.3-2.5-9.3-3.3-13.4
			c-2.7-2.2-0.5-5.4-2.5-7.9c0-3.8-6-5.2-4.1-9.3c-0.8-1.1-1.6-2.5-0.8-3.8c1.1-1.4,3.8,0,4.6-1.9l0.5-3.5c1.4-0.8,3.3,1.1,4.1-0.8
			c1.4-3.3-4.9-7.4,0.5-9c1.9-0.3,4.1-0.5,4.9,1.6c0.3,2.5,1.1,5.2,0,7.6c1.6,0.5,0.3,2.2,0.3,3.3c-1.1,0.5-1.9,1.6-3.3,1.1
			c-0.5-0.8-1.4-2.5-2.7-2.2c-1.1,1.4,0.3,2.7,0.3,4.4c-0.3,0.8,0,1.9-0.5,2.7c-0.5-0.3-0.8-0.5-1.6-0.5c-1.1,0.5-0.3,1.9,0,2.5
			c1.1,0.8,1.9,1.9,3.5,1.9l0.5-0.8c-0.3-2.2,0.8-3.8,0.8-5.7l1.9,1.1c1.6,8.2,5.4,15.5,10.1,22.6l2.5,2.5
			c-6,5.2-11.7,11.4-16.9,17.2l0,0c0-0.3-0.3-1.4-1.1-0.8C187.2,530.5,191.3,531.3,190.5,528.3z M232.4,551.8l3.3,1.4
			c-11.4-2.7-23.7-6.8-33.5-15c-1.6-1.1-2.7-3.3-4.9-3.3c4.6-3.8,9.3-8.7,13.1-13.4c1.6,3.3,5.4,4.9,8.2,7.1
			c4.9,2.2,10.1,6.5,16.1,5.4c-1.9,0.5-3.5,1.6-4.9,3.3c-0.8,1.9-0.5,4.4-3,5.2C226.7,545.8,230,549,232.4,551.8z M212.8,500.3
			c0,0.5,0.8,1.4,1.6,0.8c0.8-1.1-1.6-2.7,0-3.3c1.1,1.1,0.5,3.3,1.1,4.6c0.5,0.8,0.8,1.6,0.5,2.5c-1.9,2.2-4.4,4.1-5.4,6.5
			c-1.1-3-3.8-5.4-4.9-8.4c-1.9-3.5-3-7.4-4.6-10.6c1.6,1.9,5.7-0.3,5.7,3.5c0.3,0.3,0.5,0,1.1,0c0.5-0.5,0.5-0.5,1.4-0.3
			c0.3,0.5,1.9,1.1,0.5,1.6C210.1,498.6,211.4,500,212.8,500.3z M242.2,401.1c-3.5-0.8-6.8,0.5-10.4,0.8c-14.7,3-28.3,9.3-39.5,19.9
			l-0.5-1.4c-4.4-4.1-8.4-9.3-13.4-12.3c4.1-2.5,7.9-6.3,12-9c15.3-10.4,32.4-16.1,51.5-17.2C241.4,388.3,242,394.8,242.2,401.1z
			 M167.6,477.7l-1.6-0.5l-18,0.3c1.6-20.2,7.1-38.7,18.8-54.5l7.1-9v-1.4c4.1,4.9,9,9.5,13.9,13.9c-13.1,13.9-19.6,30.8-21,49.3
			C167,476.6,167,477.4,167.6,477.7z M154.2,508.2c-1.9,0.3-1.4,2.2-1.9,3.3c0.3-4.6-1.9-9-2.5-13.6l-1.4-12l-0.8-1.1
			c5.7,0.8,12.3,0.3,18.3,0.5l1.4-0.5c-0.5,3-0.5,7.1,1.4,9.5c-0.8-0.8-1.9-3-3.5-3c-3.3,0.3-3.5,4.6-7.1,4.6
			c-2.7,2.2-3.3,5.4-3.8,8.7C155.6,505.4,153.4,506.8,154.2,508.2z M174.1,485.6l-0.8-1.6c1.9,1.4,4.1,1.1,6.3,0.5
			c-3.3,1.1-1.9,4.9-3.3,7.4c-0.3,1.1,1.6,1.6,1.4,2.7c-1.6,0.8-1.9,2.5-2.5,3.8C176,494,174.4,489.9,174.1,485.6z M243.1,580.4
			l-1.9-1.4c-24.5-1.4-45.5-11.4-63.8-27.2c3-0.3,4.1,3.5,7.4,2.7c3.5-0.3,6.3-3.3,10.1-2.7c1.9,0,4.1,0,5.2-1.9
			c0.5-1.9-1.6-3-1.9-4.6c12.5,9.3,26.4,15.3,42.5,15.8l1.6-0.5v17.4L243.1,580.4z M246,458.3l1.1,0.5c-1.4,0-3-0.8-4.1,0.3
			c-0.8,0.5-0.3,1.6,0,2.5c2.5,0.8,3,4.9,6,3.3c1.4,0.3,3,0.5,3.5,1.9c1.9,0.8,2.2,4.1,4.6,3.3c0,1.4-0.5,3.5,1.1,4.4
			c-0.3,1.1-1.9,1.6-1.9,3c-0.3,0.3-0.5,1.1-0.3,1.6c2.5,0.3,2.2,3,3.5,4.6c-0.5,1.9,0,3.8,1.9,4.9c-0.3,2.2-1.4,4.1-2.2,6
			c-2.5,1.4-6.8-1.9-7.6,2.7c-1.4,1.6-0.3,5.2-3,5.2c-5.4,0.3-10.4-0.8-14.4-3.8c2.7-1.4,7.4,0.5,8.2-3.5c0.8-0.5,1.1-1.6,0.5-2.5
			c1.4-1.4,1.6-3,2.5-4.4c-1.1-1.1-0.5-1.6-0.3-2.7c-2.7-2.7-6.3-1.4-9.8-1.4c-2.2,1.1,0,3.5-1.4,4.9c-2.7,0.3-2.7,3-4.6,4.4
			c-1.1-0.5-1.9-1.9-1.9-3h0.3c-0.3,0.5,0.3,1.1,0.5,1.1c2.5,0.3,1.6-2.5,2.5-3.8c0.3-1.6,4.1-3.8,1.1-4.9c-0.3-0.5,0.3-1.6-0.5-1.9
			c-0.8,0.3-2.5,0.3-2.5,1.9c0.5,1.1,0,2.5-1.1,3.3h-0.5c0.3-0.8-0.3-1.4-0.8-1.6c-1.6,0-2.7,1.1-4.4,0.8c-2.2,0.5-4.4,0.8-6.5,0.8
			c-0.3-1.4,1.6-0.8,2.2-1.9c-0.3-1.9,1.1-3.3,1.9-4.6c0.5-0.5,1.6-0.3,2.2,0c0.5,0.5,1.1,1.1,1.9,0.8l0.5-1.1
			c1.9,1.1,0.8,6.8,4.6,4.4c0.5-2.5,0-5.4,1.1-7.6c-0.8-2.2,1.4-3,1.9-4.4c1.9,0.3,1.9-2.2,2.7-3.3c3-0.8,6.3-1.6,8.4-4.9
			c-0.8-1.6-0.3-4.1-1.6-5.4C242.8,457.8,245,457.2,246,458.3z M257.2,382.6c11.4,1.4,21.8,4.6,31.9,9.3c1.6,2.2,4.4,3.5,4.9,6.3
			c-1.6,4.1,5.4,3.8,2.2,7.9c-0.3,1.4,0.8,1.9,1.4,3c0.3,1.1-0.3,2.7,1.1,3.5c2.5,0.5,3.3-2.7,5.7-1.9c3,2.2,3.8,6,3.8,9.3
			c0.3,2.2,2.2,3.5,4.1,4.4c3.8-1.1,2.2,3.3,4.6,4.4c3,0.3,4.6,4.4,7.9,3.8c3,2.2,4.6,5.4,7.4,7.9c0,0.5,0.3,1.1,0.8,1.4
			c1.6,0.3,2.5-0.8,3.8-0.8c5.2,10.4,7.6,21.8,8.4,34.1l0.5,1.4c-6.3,0-12.8,0-19.3,0.5c-0.3-3.8,0-7.6-1.9-10.6
			c1.1-1.9,1.4-4.6,1.1-6.8c-0.3-1.1-1.4,0-1.6,0c-2.2,1.9-2.5,4.9-3.5,7.4c-1.9,2.5-2.2,6.5-1.1,9.3l0.8,0.8h-7.4
			c1.9-1.1-1.6-3.3,0.3-5.2l3.3-0.5c1.1-2.5,3.8-4.1,3.5-7.1c1.4-1.9,2.7-4.1,1.6-6.5c-1.6-3.5,2.7-7.4-0.5-10.6
			c0.3-1.1-0.3-2.5-1.6-2.5c-1.1-0.3-2.2,0-2.2-1.4c0.5-0.8,2.2-1.9,1.6-3.3c-0.8-1.1-1.9,0-3-0.3c-0.3-1.6,2.7-3.3,0-4.6
			c-1.9-0.3-2.7,1.9-4.6,1.1c-0.8-0.5-1.4-1.9-0.5-2.7l-3.8-4.9c-0.3-0.5-1.6,0.3-1.6-0.5c0.3-3.8-4.4-6-4.6-9.8
			c-1.4-1.4-0.3-3.8-2.2-4.9c-1.1-0.8-2.2-1.6-3.8-1.1c-1.6-2.5-3.5-4.6-5.7-6.8c-0.5-0.3-1.1,0.3-1.4,0.5c0.3,1.9,2.5,3,2.5,4.9
			c-0.3,0-0.5,0-0.8,0.3c0.3,1.9,1.9,3.5,3,4.6c-10.4-7.9-22.6-12-35.4-14.2c-2.5,0-5.2-1.1-7.6-0.3c0.5-5.7,0.3-12.3,0.3-18.3
			l-0.5-1.4C251.8,382.8,254.5,382,257.2,382.6z M262.4,356.1c26.4,3.5,49.9,14.2,69.8,33l-2.2,0.8c-3.5,3.8-7.9,7.1-9.8,11.4
			c-0.3-1.4-2.2-2.2-2.7-3.3c-0.3-3.5-3.8-7.1-7.1-9c-2.5-0.5-3.3-4.4-6.3-3.3c-2.7-2.2-6-0.5-8.4,0.5v0.3
			c-12.5-7.1-26.4-11.4-41.4-12.5c-0.8,0-1.1,0.5-1.9,0.5c0.8-0.5,0.3-2.2,0.3-3c-0.3-0.5-1.1-1.4-2.2-0.8c-0.3,0.5-0.5,1.1-0.5,1.6
			c0.3-5.7,0.5-13.1-0.3-18.3C253.4,355.9,258,355.3,262.4,356.1z M274.7,525.9c5.7,0.5,11.2,1.9,16.3,3.8c1.4,0,2.7,0,3.5-1.1
			c-0.3-2.2,2.2-3.3,1.9-5.4c1.1-1.9,0.3-4.4,1.9-6c0.3-2.2,0-4.9-1.6-6.5c-1.4-0.8-2.7,0.3-4.1,0.5c-1.6,1.1-1.1,4.6-3.8,3.8
			c-0.5,0.8-1.9,0.8-2.7,0.5c-0.3-0.3-0.5-0.3-0.5-0.8c1.9-1.1,5.4-0.3,5.7-3.5c1.4-1.4,3.8-0.8,5.2-2.2c1.1-1.6,1.4-3,2.7-4.4
			c0-0.5,0.3-1.4,0.3-1.9c0.3,0.8,0.3,2.2,1.6,2.7c1.6,0.5,2.2-0.8,2.7-1.9c0-0.5,0.3-1.4,0.8-0.8c1.6,1.4,3.8,0.3,5.7,0.3
			c1.6-0.5,3.5-0.8,5.2-0.8c-1.6,7.4-5.2,13.9-9.5,20.4c-1.6,1.9-3,4.1-4.9,6.3c-0.5-1.6-0.5-3.5-1.9-4.9l-0.8,0.3
			c-1.1,2.2-3.3,3.8-3,6.3c-1.6,2.5-5.4,0.3-7.9,1.6c-2.7,0.8-4.4-1.9-6.5-2.5c-2.5-1.1-5.4-1.1-7.6-2.5
			C273.8,526.4,274.1,525.9,274.7,525.9z M292.6,428.3c-3.5,3.8-7.9,7.6-10.9,11.7l-0.5-1.4c-8.7-7.1-18.5-10.6-29.4-12l-1.6,0.3
			v-17.7l-0.5-1.4c7.4,1.1,14.4,2.2,21.3,4.4c8.4,3,16.3,7.6,23.7,13.6l1.6,0.5L292.6,428.3z M320.2,484.2
			c-1.1,3.5-1.1,7.6-1.9,11.2c-0.3,0.5-0.3,1.4-0.5,1.9c-1.1-2.2-2.2-5.2-4.6-6.5c-2.2-1.1-0.8-4.1-2.7-5.4l-1.9-1.9
			C311.4,484.7,316.1,484.5,320.2,484.2z M308.4,449.3c2.2,0.5,3.5,3,5.7,3.5c1.9,3,2.7,6.5,3.8,9.8c-1.9,1.9-1.9,6.3-5.7,5.7
			c-0.8-2.2,1.6-3.3,1.1-5.4c0.5-0.5,1.6-0.8,1.9-1.9c-0.3-1.9-2.7-1.6-3-3.5c-0.8-1.1-2.2-1.1-3.3-1.4c-2.5-1.1-4.9,5.2-5.4,0
			c0.8-0.5,1.4-1.6,0.5-2.5c-2.2-1.1-2.5-4.1-4.6-5.4c-3.3,0-6.3-1.4-9.3-0.5c-1.9-0.5-4.4-1.9-6,0.3c0,1.6-1.1,3-1.4,4.6
			c-0.8-0.3-1.4-1.1-1.9-1.9c5.7-6.5,12.5-13.1,18.5-19.3l0.3-0.8c3,3.8,6.5,7.6,8.7,11.7C309.3,445,304.4,447.7,308.4,449.3z
			 M271.4,512.3c0,2.5-3.5,2.2-5.2,3.8c-0.8-0.3-0.3-1.4,0-1.9C267.8,513.4,268.9,512,271.4,512.3z M265.7,457.8
			c-1.1,0.3-2.2,1.1-3.3,0.5c-1.1-1.1-2.5-2.7-4.4-3c-1.4,0.3-2.2,1.9-3.5,1.1c2.5-2.5,6.5-3,8.4-6.5c0.5-1.6,1.1-3.5,0.8-5.2
			c-0.5-0.8-1.6-1.6-2.5-0.8c-1.4,2.2-4.4,2.7-5.7,4.9l-4.6-1.6c-0.8-4.4,0.3-9.8-0.8-13.6c2.5,0.8,5.2,1.1,7.9,1.6
			c6.8,1.6,12.8,4.9,18.8,8.4c-1.4,0.5-2.7,2.2-3.8,3.3c0,1.1,1.4,0.8,1.6,1.6l1.4-0.5C273.3,453.1,266.5,452.3,265.7,457.8z
			 M302.5,559.9c-3.5-3.3,2.2-5.7,3.3-8.7c-0.5-3-4.1-4.9-6.5-5.7c-1.4-0.8-0.8-2.2-0.8-3.3c1.1-1.1,2.5-2.2,3-3.8l0.5,1.4l8.2,8.4
			c0,1.9,0.3,3.5,2.2,4.4c0.8,0.3,1.9-0.3,2.7,0h-0.5c-3.5,3.8-7.6,6.8-11.7,9.8l-0.8,1.4C301.1,562.1,303.5,561.3,302.5,559.9z
			 M318,540.9c-1.6-1.6-1.6-4.6-4.6-4.6c-1.1,0-1.4,0.8-1.4,1.6c0,0.5,0.3,1.1-0.3,1.4l-6-5.2c2.7-1.4,4.9-5.2,7.1-7.9
			c5.4-7.6,8.7-16.3,11.4-25.1c0.8,0.8,2.2,0.8,3,0.3c0.8-0.8,1.1-2.2,0.5-3l-1.9-2.7c0.3-4.1,1.4-7.9,0.8-11.7l1.4,0.5
			c6,0,12.3,0.3,18.3-0.3l-0.8,1.1c-1.6,23.7-9.8,45.2-26.4,62.7C319.9,545.5,317.7,543.3,318,540.9z M371.7,469.8
			c0.3,2.2-0.3,4.9,1.1,6.8l-19.1,0.3c-0.5,0.3-1.1,0.5-1.6,0.5l0.5-0.8c-0.3-15-4.4-28.3-10.1-40.9c-0.3-5.7-5.7-9.5-7.9-14.4
			c-4.1-3-5.4-7.9-10.4-10.6c-0.8-1.1-1.4-2.7-2.7-3l2.2-0.5c4.6-4.6,9.5-9.3,13.1-14.2C356.7,415.3,369.2,440.3,371.7,469.8z
			 M365.4,423.2c-21.5-46-68.9-75.2-118.5-75.2c-21.8,0.3-41.7,5.2-59.9,14.2c-32.4,15.5-58.9,49-67.8,82.3
			c-14.4,56.1,5.2,112.8,53.1,145.8c34.6,24.8,89.6,29.4,128.6,10.6c34.6-14.4,64-50.1,73-85.3C382.8,486.1,379,449.6,365.4,423.2z"
			/>
		<path class="st1" d="M305.2,381.7c0,0.8,0,1.4,0.5,1.9c2.7,1.1,3,4.9,6.5,4.1c1.1-1.1-0.5-2.5-0.3-4.1c-0.5-1.4-1.6-1.9-3-2.5
			C307.4,382.8,306.3,380.4,305.2,381.7"/>
		<path class="st1" d="M252.6,370.6c3.5,4.4,9.5,1.9,13.9,1.1c3.3,1.4,6.3-0.3,8.4-2.2v-0.5c-2.2-3.3-6.5-3.5-10.4-3.8l-9.5,4.1
			c-0.8-0.3-2.2-0.8-2.7,0.3C252,370,252.3,370.3,252.6,370.6"/>
	</g>
</g>
</svg>
