<?xml version="1.0" encoding="UTF-8" standalone="no"?>
<!-- Created with Inkscape (http://www.inkscape.org/) -->

<svg
   version="1.1"
   id="svg2"
   xml:space="preserve"
   width="155.51"
   height="40"
   viewBox="0 0 381.00134 98.268265"
   sodipodi:docname="OSCE_LT_ENG_WHITE.ai"
   xmlns:inkscape="http://www.inkscape.org/namespaces/inkscape"
   xmlns:sodipodi="http://sodipodi.sourceforge.net/DTD/sodipodi-0.dtd"
   xmlns="http://www.w3.org/2000/svg"
   xmlns:svg="http://www.w3.org/2000/svg"><defs
     id="defs6"><clipPath
       clipPathUnits="userSpaceOnUse"
       id="clipPath16"><path
         d="M 0,73.701 H 285.751 V 0 H 0 Z"
         id="path14" /></clipPath></defs><sodipodi:namedview
     id="namedview4"
     pagecolor="#ffffff"
     bordercolor="#666666"
     borderopacity="1.0"
     inkscape:pageshadow="2"
     inkscape:pageopacity="0.0"
     inkscape:pagecheckerboard="0" /><g
     id="g8"
     inkscape:groupmode="layer"
     inkscape:label="OSCE_LT_ENG_WHITE"
     transform="matrix(1.3333333,0,0,-1.3333333,0,98.268267)"><g
       id="g10"><g
         id="g12"
         clip-path="url(#clipPath16)"><g
           id="g18"
           transform="translate(15.392,55.25)"><path
             d="m 0,0 c 5.119,4.862 11.667,7.293 19.649,7.293 7.539,0 13.67,-2.267 18.4,-6.806 4.729,-4.539 7.094,-10.395 7.094,-17.578 0,-5.02 -1.22,-9.608 -3.659,-13.768 -2.438,-4.16 -5.878,-7.42 -10.311,-9.773 -4.434,-2.35 -9.329,-3.53 -14.684,-3.53 -4.178,0 -7.705,0.672 -10.585,2.012 -2.884,1.342 -5.224,3.025 -7.015,5.051 -1.791,2.027 -3.149,4.107 -4.072,6.24 -1.663,3.746 -2.493,7.75 -2.493,12.014 0,7.699 2.557,13.98 7.676,18.845 m -15.392,-55.25 h 68.031 v 73.701 h -68.031 z"
             style="fill:#ffffff;fill-opacity:1;fill-rule:nonzero;stroke:none"
             id="path20" /></g><g
           id="g22"
           transform="translate(26.4501,17.5059)"><path
             d="m 0,0 c 2.831,-2.029 5.895,-3.039 9.193,-3.039 4.197,0 7.722,1.59 10.569,4.779 2.846,3.188 4.272,8.092 4.272,14.711 0,5.506 -0.844,10.262 -2.529,14.268 -1.686,4.002 -3.842,6.828 -6.465,8.473 -2.627,1.644 -5.51,2.47 -8.657,2.47 -4.498,0 -8.134,-1.543 -10.906,-4.627 -2.774,-3.084 -4.159,-7.884 -4.159,-14.396 0,-4.266 0.738,-8.598 2.217,-12.998 C -4.984,5.24 -2.829,2.026 0,0"
             style="fill:#ffffff;fill-opacity:1;fill-rule:nonzero;stroke:none"
             id="path24" /></g><g
           id="g26"
           transform="translate(86.5234,15.1021)"><path
             d="m 0,0 c 0.335,1.47 0.558,2.902 0.673,4.306 0.112,1.403 0.205,4.321 0.283,8.766 H 4.164 C 4.198,11.101 4.308,9.541 4.49,8.387 4.672,7.232 4.982,6.101 5.42,4.996 5.857,3.892 6.532,2.957 7.449,2.193 8.36,1.429 9.355,0.834 10.432,0.408 c 1.077,-0.424 2.167,-0.705 3.285,-0.842 1.112,-0.135 2.799,-0.201 5.064,-0.201 3.722,0 6.777,0.918 9.169,2.76 2.389,1.838 3.585,4.357 3.585,7.562 0,1.43 -0.378,2.692 -1.132,3.782 -0.756,1.087 -1.838,1.939 -3.255,2.554 -1.416,0.614 -4.457,1.414 -9.125,2.401 -4.671,0.99 -7.684,1.703 -9.045,2.148 -2.058,0.713 -3.696,1.582 -4.909,2.604 -1.213,1.019 -2.177,2.314 -2.892,3.882 -0.718,1.567 -1.076,3.272 -1.076,5.114 0,2.687 0.765,5.168 2.301,7.433 1.537,2.268 3.953,4.104 7.248,5.52 3.294,1.412 6.883,2.119 10.772,2.119 2.332,0 5.033,-0.285 8.106,-0.856 3.073,-0.57 5.573,-1.279 7.497,-2.123 -0.1,-3.839 -0.173,-7.748 -0.213,-11.72 h -3.208 c -0.187,2.502 -0.397,4.146 -0.637,4.933 -0.241,0.791 -0.565,1.492 -0.97,2.11 -0.406,0.613 -1.109,1.277 -2.105,1.976 -1,0.701 -2.282,1.328 -3.851,1.877 -1.572,0.547 -3.503,0.824 -5.794,0.824 -3.251,0 -5.865,-0.89 -7.844,-2.666 C 9.425,39.824 8.44,37.738 8.44,35.347 c 0,-1.334 0.281,-2.482 0.846,-3.437 0.565,-0.957 1.32,-1.736 2.269,-2.332 0.949,-0.598 2.278,-1.135 3.992,-1.613 l 9.075,-2.102 c 4.591,-1.092 7.755,-2.033 9.486,-2.818 1.731,-0.789 3.124,-2.01 4.18,-3.668 1.055,-1.655 1.587,-3.647 1.587,-5.967 0,-4.613 -2.041,-8.641 -6.125,-12.074 -4.082,-3.432 -9.549,-5.151 -16.396,-5.151 -3.15,0 -7.343,0.452 -12.579,1.346 -2.893,0.516 -4.451,0.875 -4.667,1.082 -0.148,0.104 -0.221,0.275 -0.221,0.516 0,0.236 0.037,0.529 0.113,0.871 m -13.956,-15.102 h 68.031 v 73.701 h -68.031 z"
             style="fill:#ffffff;fill-opacity:1;fill-rule:nonzero;stroke:none"
             id="path28" /></g><g
           id="g30"
           transform="translate(159.0996,46.1255)"><path
             d="m 0,0 c 1.23,2.963 2.748,5.252 4.547,6.863 1.21,1.131 3.517,2.594 6.913,4.395 3.397,1.8 5.775,2.959 7.136,3.474 2.495,0.994 5.487,1.488 8.978,1.488 3.303,0 6.277,-0.318 8.922,-0.957 1.691,-0.404 3.379,-1.078 5.07,-2.021 C 41.109,10.613 40.785,8.623 40.597,7.277 40.406,5.929 40.158,3.478 39.855,-0.071 h -3.207 c -0.221,3.254 -0.439,5.288 -0.656,6.096 -0.147,0.502 -0.475,0.955 -0.983,1.36 -1.308,0.935 -2.992,1.751 -5.048,2.441 -2.057,0.687 -4.303,1.033 -6.741,1.033 -3.059,0 -5.705,-0.592 -7.943,-1.769 C 13.038,7.908 11.298,6.041 10.061,3.478 8.824,0.914 8.206,-2.262 8.206,-6.053 c 0,-4.648 0.876,-8.852 2.634,-12.607 1.754,-3.76 4.139,-6.5 7.159,-8.227 3.019,-1.727 6.393,-2.586 10.126,-2.586 1.863,0 3.681,0.215 5.455,0.643 1.775,0.429 4.052,1.246 6.834,2.449 l 1.152,-1.338 -2.203,-3.443 c -2.535,-1.28 -5.041,-2.209 -7.52,-2.797 -2.48,-0.582 -5.278,-0.879 -8.4,-0.879 -7.715,0 -13.86,2.168 -18.43,6.506 -4.571,4.336 -6.858,10.293 -6.858,17.867 0,4.01 0.616,7.496 1.845,10.465 m -13.958,-46.125 h 68.031 v 73.701 h -68.031 z"
             style="fill:#ffffff;fill-opacity:1;fill-rule:nonzero;stroke:none"
             id="path32" /></g><g
           id="g34"
           transform="translate(252.6259,58.9693)"><path
             d="m 0,0 c -4.203,0 -7.584,-1.418 -10.15,-4.25 -2.566,-2.834 -3.867,-7.311 -3.902,-13.434 1.039,-0.131 3.009,-0.265 5.91,-0.396 5.539,-0.17 9.349,-0.254 11.435,-0.254 4.94,0 8.192,0.084 9.754,0.254 0.039,0.845 0.059,1.492 0.059,1.951 0,5.549 -1.19,9.625 -3.57,12.226 C 7.159,-1.301 3.977,0 0,0"
             style="fill:#ffffff;fill-opacity:1;fill-rule:nonzero;stroke:none"
             id="path36" /></g><g
           id="g38"
           transform="translate(275.5683,38.752)"><path
             d="m 0,0 c -2.666,-0.445 -5.055,-0.73 -7.168,-0.859 -3.998,-0.254 -7.998,-0.381 -11.994,-0.381 h -17.832 c 0.074,-4.924 0.984,-8.908 2.74,-11.955 1.752,-3.049 4.174,-5.291 7.256,-6.741 3.082,-1.445 6.285,-2.164 9.607,-2.164 2.252,0 4.492,0.334 6.729,1.012 2.232,0.674 4.992,1.912 8.279,3.713 l 0.885,-0.877 -1.766,-3.701 c -2.541,-1.477 -4.398,-2.457 -5.574,-2.936 -1.731,-0.724 -3.709,-1.336 -5.934,-1.83 -2.224,-0.494 -4.57,-0.746 -7.037,-0.746 -4.857,0 -9.256,0.944 -13.191,2.83 -3.936,1.889 -7,4.711 -9.19,8.467 -2.191,3.756 -3.285,8.156 -3.285,13.203 0,3.945 0.58,7.504 1.742,10.68 1.162,3.174 2.481,5.517 3.957,7.025 1.069,1.1 2.729,2.36 4.979,3.783 2.248,1.424 4.478,2.547 6.695,3.373 2.913,1.129 6.065,1.698 9.459,1.698 4.129,0 7.862,-0.879 11.201,-2.633 3.336,-1.756 5.78,-4.147 7.329,-7.178 C -0.564,10.756 0.213,7.332 0.213,3.514 0.213,2.547 0.14,1.377 0,0 m -57.848,-38.752 h 68.031 v 73.701 h -68.031 z"
             style="fill:#ffffff;fill-opacity:1;fill-rule:nonzero;stroke:none"
             id="path40" /></g></g></g></g></svg>
