<svg xmlns="http://www.w3.org/2000/svg" xmlns:xlink="http://www.w3.org/1999/xlink" viewBox="0 0 353.61 367.32"><defs><style>.cls-1,.cls-5{fill:none;}.cls-2{fill:url(#Безымянный_градиент_102);}.cls-3{clip-path:url(#clip-path);}.cls-4{fill:#fff;}.cls-5{stroke:#0071bc;stroke-miterlimit:10;stroke-width:3px;}.cls-6{fill:url(#Безымянный_градиент_46);}.cls-7{fill:#0071bc;}.cls-8{fill:url(#Безымянный_градиент_109);}</style><linearGradient id="Безымянный_градиент_102" x1="0.38" y1="192.01" x2="351" y2="192.01" gradientUnits="userSpaceOnUse"><stop offset="0.01" stop-color="#005b97"/><stop offset="0.13" stop-color="#0075be"/><stop offset="0.43" stop-color="#1e9cd7"/><stop offset="0.62" stop-color="#56b6e1"/><stop offset="0.79" stop-color="#7fcae9"/><stop offset="0.92" stop-color="#99d6ed"/><stop offset="1" stop-color="#a2daef"/></linearGradient><clipPath id="clip-path"><circle class="cls-1" cx="175.69" cy="192.01" r="175.58"/></clipPath><linearGradient id="Безымянный_градиент_46" x1="215.25" y1="43.55" x2="353.61" y2="43.55" gradientUnits="userSpaceOnUse"><stop offset="0.01" stop-color="#005b97"/><stop offset="0.13" stop-color="#0075be"/><stop offset="0.43" stop-color="#1e9cd7"/><stop offset="0.54" stop-color="#47acde"/><stop offset="0.69" stop-color="#80c2e7"/><stop offset="0.83" stop-color="#a9d2ee"/><stop offset="0.94" stop-color="#c3dcf2"/><stop offset="1" stop-color="#cce0f4"/></linearGradient><linearGradient id="Безымянный_градиент_109" x1="-2.76" y1="180.33" x2="230.05" y2="151.74" gradientUnits="userSpaceOnUse"><stop offset="0.01" stop-color="#009245"/><stop offset="0.13" stop-color="#00aa48"/><stop offset="0.43" stop-color="#39b54a"/><stop offset="0.55" stop-color="#52c967"/><stop offset="0.75" stop-color="#76e690"/><stop offset="0.91" stop-color="#8cf8aa"/><stop offset="1" stop-color="#94ffb3"/></linearGradient></defs><title>Ресурс 1</title><g id="Слой_2" data-name="Слой 2"><g id="Слой_1-2" data-name="Слой 1"><circle class="cls-2" cx="175.69" cy="192.01" r="175.31"/><g class="cls-3"><circle class="cls-4" cx="187.39" cy="138.76" r="138.76"/></g><circle class="cls-5" cx="126.07" cy="214.1" r="7.7"/><path class="cls-6" d="M353.61,5.36a108.38,108.38,0,0,0-35.76,50,106.94,106.94,0,0,0-5.52,26.34,176,176,0,0,0-97.08-60.83,108.44,108.44,0,0,1,84.21,17.92A108.19,108.19,0,0,1,353.61,5.36Z"/><circle class="cls-7" cx="126.07" cy="214.1" r="3.34"/></g><g id="Слой_2-2" data-name="Слой 2"><path class="cls-8" d="M220.65,75.17c-2.35-.09-4.7-.14-7.07-.14a175.16,175.16,0,0,0-54.9,8.76,175.73,175.73,0,0,0,53-35.67q-6-.42-12.11-.42a175.57,175.57,0,0,0-51.1,7.55A176.09,176.09,0,0,0,182.62,26.7Q187,22,191,17q-7.62-.68-15.4-.67A175.73,175.73,0,0,0,38.52,82.19q-2.75,3.42-5.31,7A175.61,175.61,0,0,0,36,298.44l0,0A173.24,173.24,0,0,0,49,313.6h0c.36.38.72.75,1.09,1.12.73.76,1.47,1.5,2.23,2.24q-.64-7.43-.64-15a175.61,175.61,0,0,1,3.87-36.79h0a175.79,175.79,0,0,1,138.22-135.6,108.09,108.09,0,0,0-35.18-5.85,109.74,109.74,0,0,0-13.89.88A175.48,175.48,0,0,0,220.65,75.17Z"/></g></g></svg>